<?xml version="1.0" encoding="utf-8"?>
<!-- Generator: Adobe Illustrator 17.1.0, SVG Export Plug-In . SVG Version: 6.00 Build 0)  -->
<!DOCTYPE svg PUBLIC "-//W3C//DTD SVG 1.1//EN" "http://www.w3.org/Graphics/SVG/1.1/DTD/svg11.dtd">
<svg version="1.1" id="Layer_1" xmlns="http://www.w3.org/2000/svg" xmlns:xlink="http://www.w3.org/1999/xlink" x="0px" y="0px"
	 viewBox="0 0 108 108" enable-background="new 0 0 108 108" xml:space="preserve">
<path fill="#FFFFFF" d="M4.157,22.574c0,0-11.248,59.989,59.364,74.987C63.522,97.561,54.773,36.322,4.157,22.574z"/>
<path fill="#FFFFFF" d="M101.543,45.655c0,0,7.204,41.525-38.021,51.906C63.522,97.561,69.125,55.171,101.543,45.655z"/>
<ellipse fill="none" stroke="#FFFFFF" stroke-width="2" stroke-miterlimit="10" cx="63.522" cy="54.853" rx="22.333" ry="21.041"/>
<ellipse fill="#E6E7E8" cx="55.855" cy="52.207" rx="2.333" ry="2.646"/>
<ellipse fill="#E6E7E8" cx="69.188" cy="51.206" rx="2.333" ry="2.646"/>
<path fill="#E6E7E8" d="M61.381,56.587c0,0-7.182-0.595,0,7.457c0,0,0.503,0.32,1.189,0c0.686-0.32,6.084-6.744,1.647-7.467
	C64.217,56.577,62.799,57.228,61.381,56.587z"/>
<path fill="none" stroke="#FFFFFF" stroke-width="2" stroke-miterlimit="10" d="M44.406,43.968c0,0-6.167-8.839-0.551-10.923
	c0,0,4.598-2.162,8.799,3.427"/>
<path fill="none" stroke="#FFFFFF" stroke-width="2" stroke-miterlimit="10" d="M82.895,43.911c0,0,4.594-9.183-0.3-10.929
	c0,0-4.039-1.883-7.199,3.941"/>
</svg>
